<svg width="205" height="29" viewBox="0 0 205 29" fill="none" xmlns="http://www.w3.org/2000/svg">
<path d="M9.31051 28.3778C8.89672 28.3778 8.62086 28.3778 8.20706 28.2303C7.51741 28.2303 6.82775 28.0829 6.1381 28.0829C4.345 28.0829 1.86224 28.0829 1.44844 28.2303H1.17258L1.03465 28.0829C0.758789 27.7879 0.758789 27.493 0.758789 27.3455C0.758789 27.1981 0.758789 26.9031 1.03465 26.6082H1.31051C2.1381 26.3133 2.82775 26.1658 3.37948 26.0184C4.06913 25.7234 4.20706 25.281 4.20706 23.5114V23.364V14.0737C4.20706 9.94462 4.20706 5.22573 4.06913 4.63587C4.06913 3.45614 3.79327 3.45614 3.51741 3.30868C3.10362 3.16121 2.82775 3.16121 2.27603 3.16121C2.00017 3.16121 1.72431 3.01375 1.31051 3.01375H1.03465C0.620858 2.42389 0.758789 1.68656 0.89672 1.39163L1.17258 0.949232H1.44844C1.72431 0.949232 3.9312 1.24416 3.9312 1.24416C4.62086 1.24416 5.44844 1.39163 6.1381 1.39163H10.6898L10.8278 1.68656C11.1036 1.98149 11.1036 2.86628 10.6898 3.16121H10.5519C9.86224 3.01375 9.03465 3.16121 8.75879 3.30868C8.06913 3.45614 7.9312 3.45614 7.9312 4.4884C7.79327 6.11052 7.79327 8.91237 7.79327 13.0414H21.3105C21.3105 10.5345 21.1726 5.37319 21.1726 4.19347C21.1726 3.45614 20.8967 3.30868 20.7588 3.30868C20.0691 3.16121 19.5174 3.01375 18.8278 3.01375H18.5519C18.1381 2.57135 18.1381 1.83402 18.5519 1.53909L18.6898 0.949232H18.8278C18.9657 0.949232 19.5174 1.0967 19.7933 1.0967H20.2071C21.1726 1.0967 22.1381 1.24416 23.1036 1.24416H26.0002C26.0002 1.24416 27.2415 1.0967 27.3795 1.0967H27.6553L27.9312 1.39163V1.53909C28.2071 1.83402 28.2071 2.57135 27.7933 3.01375L27.6553 3.16121L27.1036 3.30868C26.5519 3.45614 26.1381 3.45614 25.8622 3.60361C25.3105 3.75108 25.0347 3.89854 25.0347 5.3732C25.0347 6.55292 24.8967 10.2396 24.8967 14.811C24.8967 18.6451 24.8967 23.6589 25.0347 24.8386C25.1726 26.0184 25.3105 26.0184 25.7243 26.1658C26.276 26.3133 26.6898 26.4608 27.7933 26.6082H28.0691L28.2071 26.9031C28.4829 27.3455 28.4829 27.9354 27.9312 28.2303H18.5519L18.414 28.0829C18.1381 27.6405 18.1381 27.0506 18.414 26.7557L18.5519 26.4608H19.1036C19.6553 26.4608 20.0691 26.3133 20.7588 26.1658C21.3105 26.0184 21.3105 26.0184 21.4484 24.6912V15.8432H8.06913C8.06913 18.2027 8.06913 23.5114 8.20706 24.1013V24.5437C8.345 25.7234 8.345 25.8709 8.75879 26.0184H8.89672C9.31051 26.1658 9.72431 26.3133 10.8278 26.4608H11.1036L11.2415 26.7557C11.5174 27.0506 11.3795 27.7879 11.2415 27.9354C11.2415 28.0829 10.6898 28.3778 10.6898 28.5253C10.5519 28.3778 9.44844 28.3778 9.31051 28.3778ZM203.793 26.6082L203.655 26.3133H203.379C200.897 26.0184 200.897 26.0184 199.931 23.8064C199.104 21.7419 196.897 14.6635 195.242 9.50223L194.828 8.3225C194 5.66813 193.448 4.04601 193.311 3.45614C193.173 3.16121 193.035 2.42389 192.897 1.68656L192.759 1.0967L192.207 0.949232H189.862L189.724 1.68656C189.724 2.12896 189.448 2.86628 189.173 3.75108C189.035 4.19347 188.759 4.9308 188.483 5.81559C186.966 10.0921 184.207 18.0552 182.276 22.9216C181.173 25.576 180.897 25.8709 178.966 26.3133C177.586 26.1658 176.759 25.576 174.69 22.9216C172.858 20.4963 171.065 18.0382 169.311 15.5483C168.759 14.811 168.345 14.3686 167.931 14.0737C169.035 13.0414 170.138 10.9769 171.793 7.73264C173.035 5.22573 173.586 4.4884 174.552 4.4884C174.966 4.4884 175.793 4.9308 176.207 5.22573L176.621 5.52066C177.035 5.52066 177.311 5.07826 177.448 4.9308C177.862 4.34094 178.138 2.86628 178.138 2.12896C178.138 1.98149 178 1.39163 177.724 1.24416C177.311 0.949232 176.621 0.654301 176.207 0.654301C173.448 0.654301 171.793 2.42389 169.035 8.3225C168.207 9.94462 167.793 10.682 166.966 11.8617C166.552 12.4515 165.862 13.1889 163.655 13.1889V5.07826C163.655 3.60361 163.793 3.60361 164.483 3.45614C164.897 3.30868 165.035 3.30868 165.311 3.30868L165.862 3.16121C166.276 3.01375 166.414 2.71882 166.414 2.27642C166.414 1.83402 166.138 1.39163 165.724 1.24416H164.345C163.655 1.24416 162.828 1.39163 161.862 1.39163C160.759 1.39163 159.655 1.39163 158.828 1.24416H157.586H157.311C157.173 1.24416 156.897 1.39163 156.897 1.83402C156.897 1.98149 156.759 2.57135 157.173 2.86628H157.448C158.276 3.01375 158.69 3.01375 159.242 3.16121C159.931 3.30868 159.931 3.60361 160.069 4.63587C160.069 5.81559 160.207 8.7649 160.207 13.6313C160.207 15.2534 160.207 21.5944 160.069 23.5114C159.931 25.7234 159.931 25.8709 158.828 26.0184L157.448 26.1658H157.035C154.552 26.1658 153.862 25.4285 151.931 22.6267C150.69 21.0045 149.862 19.5299 148.897 18.2027L148.759 18.0552L147.517 16.2856C146.552 14.811 146 14.2211 145.173 13.6313C146.276 12.4515 147.655 10.2396 149.173 7.29025C150.69 4.34094 151.517 4.19347 151.793 4.19347C152.207 4.19347 153.311 4.4884 153.448 4.78333C153.586 4.9308 153.724 4.9308 154 4.9308C154.276 4.9308 154.69 4.78333 154.828 4.4884C154.966 4.19347 155.517 2.86628 155.517 1.98149C155.517 1.83402 155.379 1.24416 155.104 1.0967C154.552 0.654301 154 0.506836 153.448 0.506836C150.966 0.506836 149.448 2.12896 146.552 8.02757C145.724 9.64969 144.897 11.1243 144.345 11.8617C143.517 12.7465 143.104 13.1889 141.448 13.3363V11.1243V5.22573C141.448 3.75108 141.448 3.75108 142.276 3.45614C142.414 3.45614 142.552 3.45614 142.69 3.30868C142.966 3.30868 143.104 3.16121 143.655 3.16121C144.069 3.01375 144.207 2.71882 144.345 2.27642C144.345 1.83402 144.069 1.39163 143.655 1.39163H142.966C142.276 1.39163 141.035 1.53909 139.517 1.53909C138.414 1.53909 137.448 1.53909 136.621 1.39163H135.104C134.966 1.39163 134.69 1.53909 134.552 2.12896C134.552 2.27642 134.414 2.71882 134.828 3.16121H134.966L135.655 3.30868C136.069 3.30868 136.759 3.45614 137.173 3.60361C137.862 3.75108 138 4.04601 138 5.07826V13.4838C136.207 13.3363 135.517 12.7465 134.69 11.2718C134 10.0921 133.311 8.91237 131.655 5.22573C130.552 2.71882 129.311 0.801767 126.552 0.801767C126 0.801767 125.586 0.949232 125.311 1.0967C125.173 1.24416 124.897 1.39163 124.621 1.83402C123.793 2.27642 123.517 3.75108 123.517 4.04601C123.517 4.34094 123.655 4.63587 123.793 4.63587C123.931 4.78333 124.069 4.9308 124.345 4.9308H124.483L124.897 4.78333C125.448 4.4884 126 4.19347 126.966 4.19347C127.379 4.19347 128.207 4.19347 130.138 8.02757C131.655 10.9769 132.759 12.7465 133.724 13.7787C132.345 14.6635 131.379 15.9907 129.862 18.3502C129.311 19.2349 126.552 23.364 126 24.1013C125.173 25.1336 123.793 25.8709 121.311 26.1658C120.897 26.1658 120.483 25.8709 120.621 25.4285C121.311 24.2488 121.586 22.9216 121.724 21.8893V21.5944C121.586 21.2995 121.035 21.0045 120.759 21.0045H120.621L120.345 21.152L120.207 21.4469C119.655 22.9216 118.69 24.5437 118.138 24.9861C117.724 25.4285 117.311 25.8709 115.104 25.8709C112.345 25.8709 110.966 25.7234 110.138 25.576C110 25.576 109.724 25.4285 109.586 24.6912C109.448 22.3317 109.448 16.8755 109.448 15.5483H111.242C112.897 15.5483 114.69 15.5483 115.379 15.6958C116.207 15.6958 116.345 16.1382 116.483 16.5806V16.728C116.621 17.1704 116.621 17.4654 116.621 17.9078V18.2027C116.759 18.3502 116.897 18.6451 117.448 18.6451C117.862 18.6451 118.138 18.4976 118.276 18.2027C118.276 18.2027 118.414 16.2856 118.414 15.9907V14.5161C118.414 13.1889 118.552 11.5667 118.69 10.8294V10.5345C118.552 10.0921 117.862 10.0921 117.724 10.0921C117.448 10.0921 117.311 10.0921 117.035 10.2396L116.897 10.387V10.5345C116.759 10.9769 116.621 11.5667 116.483 12.0091C116.345 12.599 116.207 12.8939 115.242 13.0414C114.552 13.0414 112.759 13.1889 110.966 13.1889H109.173C109.173 12.0091 109.173 5.22573 109.311 3.60361H115.242C116.621 3.60361 116.759 4.04601 117.035 4.9308C117.173 5.52066 117.311 6.25799 117.311 7.29025V7.58518L117.586 7.73264C117.724 7.88011 118 7.88011 118.138 7.88011C118.552 7.88011 118.828 7.73264 118.966 7.58518L119.379 7.43771V7.29025C119.655 4.78333 119.931 3.01375 120.207 1.98149V1.83402C120.207 1.39163 119.793 0.949232 119.379 0.949232H103.242L103.104 1.0967L102.966 1.24416C102.552 1.53909 102.552 1.98149 102.552 2.12896C102.552 2.42389 102.69 2.71882 102.966 2.86628H103.104C103.793 3.01375 104.345 3.01375 104.897 3.16121C105.586 3.45614 105.586 3.45614 105.724 4.9308C105.724 5.52066 105.862 9.35476 105.862 13.6313C105.862 18.7926 105.862 23.5114 105.724 24.1013C105.586 25.7234 105.311 25.8709 104.759 26.0184C104.207 26.1658 103.655 26.1658 102.69 26.3133H102.276C99.9312 26.0184 99.9312 26.0184 98.9657 23.8064C98.0002 21.2995 94.5519 10.387 93.0346 5.81559L92.345 3.60361C92.2071 2.86628 91.9312 2.27642 91.9312 1.68656V1.53909L91.7933 0.949232H88.8967L88.7588 1.68656C88.6209 2.27642 88.4829 3.16121 88.2071 3.89854L87.7933 4.9308C86.6898 8.3225 83.5174 17.4654 81.3105 22.9216C80.2071 25.7234 79.9312 26.0184 77.7243 26.3133C77.1726 26.3133 76.7588 26.1658 76.4829 26.1658C75.7933 26.0184 75.6553 25.7234 75.5174 24.9861C75.5174 23.5114 75.3795 16.5806 75.3795 14.5161C75.3795 11.4193 75.5174 6.99531 75.5174 4.9308C75.5174 3.60361 75.6553 3.60361 76.345 3.45614C76.8967 3.30868 77.3105 3.30868 78.1381 3.01375H78.414C78.6898 2.71882 78.6898 2.42389 78.6898 2.12896C78.6898 1.83402 78.5519 1.53909 78.276 1.39163L78.0002 1.0967H76.6208C75.9312 1.0967 74.9657 1.24416 73.5864 1.24416H70.8278C70.6898 1.24416 70.6898 1.0967 70.5519 1.0967C70.276 1.0967 69.5864 0.949232 69.3105 0.949232H69.1726L68.8967 1.39163C68.6209 1.68656 68.6209 2.57135 68.8967 2.86628L69.0346 3.01375H69.4484C70.0002 3.01375 70.276 3.16121 70.6898 3.16121C71.3795 3.45614 71.5174 3.45614 71.5174 4.34094C71.6553 5.66813 71.6553 8.91237 71.6553 11.5667V13.0414C70.276 13.6313 68.6209 13.9262 67.5174 13.9262C64.7588 13.9262 62.276 13.3363 62.1381 9.05983C62.1381 7.43771 62.0002 4.63587 62.1381 3.89854C62.1381 3.45614 62.1381 3.30868 63.9312 3.01375H64.2071L64.345 2.71882C64.6209 2.42389 64.6209 1.68656 64.345 1.39163V1.24416L63.9312 0.949232H63.7933L62.9657 1.0967H62.6898C62.0002 1.0967 61.1726 1.24416 60.0691 1.24416H56.8967H56.6209C56.4829 1.0967 55.9312 0.949232 55.9312 0.949232H55.6553L55.3795 1.39163C55.1036 1.68656 55.1036 2.27642 55.2415 2.57135L55.3795 2.86628H55.9312C56.4829 2.86628 56.8967 3.01375 57.3105 3.01375C58.1381 3.16121 58.276 3.45614 58.276 4.63587V8.7649C58.276 11.1243 58.6898 12.7465 59.3795 13.7787C61.0346 16.1382 63.5174 16.4331 65.7243 16.4331C67.5174 16.4331 69.5864 15.8432 71.5174 14.9584V23.364C71.5174 25.8709 71.2415 25.8709 70.6898 26.0184C70.276 26.1658 69.7243 26.1658 69.0346 26.3133C68.7588 26.3133 68.4829 26.4608 68.4829 26.9031C68.4829 27.0506 68.345 27.7879 68.8967 28.0829H81.1726C81.8622 28.0829 82.9657 27.9354 83.9312 28.0829H86.276C86.5519 27.7879 86.6898 27.0506 86.276 26.6082H86.0002C85.0346 26.4608 84.7588 26.4608 84.345 26.3133C83.9312 26.1658 83.6553 26.0184 83.6553 25.8709C83.5174 25.576 83.5174 25.1336 83.7933 24.3962C84.0691 23.364 85.0346 20.5621 86.0002 17.9078L86.1381 17.6128C87.3795 14.0737 88.8967 9.79716 89.7243 7.14278C93.0346 17.6128 94.9657 23.9538 95.5174 25.7234C95.5174 25.8709 95.6553 26.0184 95.6553 26.0184L95.5174 26.1658C95.1036 26.3133 94.5519 26.4608 93.8622 26.4608H93.3105C92.8967 26.7557 93.1726 27.6405 93.1726 27.7879L93.3105 28.0829H93.7243C94.5519 27.9354 97.1726 27.9354 98.1381 27.9354H107.793C111.793 27.9354 113.724 27.9354 115.242 28.0829H123.379C124.345 28.0829 125.173 27.9354 125.862 27.9354C127.379 27.7879 128.207 27.3455 130 25.1336C130.276 24.8386 131.104 23.5114 132.069 21.7419C133.173 19.9723 134.552 17.6128 135.242 16.728C135.931 15.8432 136.759 15.2534 138 15.1059V23.5114C137.862 25.576 137.724 25.8709 136.759 26.0184L135.379 26.3133C134.966 26.6082 134.966 27.3455 134.966 27.493C135.104 27.7879 135.379 28.0829 135.655 28.0829H139.655C142.276 28.0829 143.242 28.2303 143.655 28.2303H144.207L144.621 28.0829V27.9354C144.759 27.7879 144.897 27.493 144.897 27.1981C144.897 26.9031 144.759 26.6082 144.483 26.4608H144.207C143.379 26.3133 142.966 26.3133 142.552 26.1658C141.724 26.0184 141.586 25.8709 141.586 24.6912C141.586 23.2165 141.586 19.2349 141.448 16.728V15.2534C142.414 15.4008 143.379 16.1382 144.207 17.6128L145.173 19.0875C147.379 22.4792 149.173 25.576 150.552 26.9031C151.242 27.6405 151.931 28.0829 153.586 28.3778H155.242C155.793 28.3778 157.311 28.3778 157.862 28.2303H166.966C167.104 28.0829 167.379 27.9354 167.379 27.493C167.379 27.1981 167.242 26.9031 166.966 26.6082H166.69C165.862 26.4608 165.448 26.4608 165.035 26.3133C164.207 26.1658 164.207 26.0184 164.207 24.8386V18.4976V15.6958C165.311 15.8432 166 16.5806 166.966 17.9078C167.655 18.7925 168.345 19.8248 168.897 20.7096L169.035 21.0045C170.966 23.8064 172.621 26.1658 173.724 27.1981C174.414 27.7879 174.966 28.2303 176.345 28.5253C176.759 28.5253 178.552 28.6727 179.931 28.6727H181.173C181.311 28.6727 182.276 28.5253 182.69 28.5253H183.242C184.207 28.5253 187.655 28.3778 187.655 28.3778C187.931 28.0829 188.069 27.3455 187.655 26.9031L187.517 26.7557H187.379C186.552 26.6082 186.138 26.6082 185.724 26.4608C184.897 26.3133 184.897 26.0184 185.035 25.4285C185.173 24.3962 186.552 20.7096 187.655 17.6128H194.414L194.828 18.7926C195.655 21.152 196.759 24.5437 197.173 26.0184C197.173 26.1658 197.311 26.3133 197.311 26.3133L197.173 26.4608C196.759 26.6082 196.207 26.7557 195.517 26.7557H194.966C194.69 27.0506 194.828 27.9354 194.828 28.0829L195.104 28.3778H195.517C196.345 28.2303 198.966 28.2303 199.931 28.2303C201.035 28.2303 204.069 28.3778 204.207 28.3778H204.483C204.621 28.2303 204.759 28.0829 204.897 27.7879C203.931 27.3455 203.931 26.9031 203.793 26.6082ZM190.966 14.6635H187.931C188.069 14.0737 188.483 13.1889 188.483 13.1889C189.035 11.2718 190 8.61744 190.552 6.84785C191.104 8.46997 191.655 10.5345 192.345 12.599L193.035 14.811C192.345 14.6635 191.517 14.6635 190.966 14.6635ZM41.8622 28.3778C37.8622 28.3778 34.5519 27.0506 32.2071 24.5437C30.0002 22.0368 28.7588 18.6451 28.7588 14.6635C28.7588 12.1566 29.3105 8.46997 32.0691 5.52066C33.5864 3.75108 35.9312 2.27642 38.5519 1.68656L38.9657 1.53909L39.3795 2.57135L38.9657 2.71882C38.5519 3.01375 38.1381 3.16121 37.8622 3.45614C35.5174 5.52066 34.414 9.50223 34.9657 14.3686C35.1036 16.1382 35.6553 17.9078 36.2071 19.3824C36.7588 20.8571 37.4484 22.1843 38.276 23.069C39.2415 24.2488 40.0691 25.1336 41.1726 25.7234C42.1381 26.3133 43.3795 26.6082 44.6209 26.7557H45.0346L45.1726 27.9354L44.7588 28.0829C43.7933 28.2303 42.8278 28.3778 41.8622 28.3778ZM51.5174 22.6267L51.6553 22.1843C52.4829 20.1197 52.7588 17.4654 52.345 14.2211C51.7933 9.2073 49.5864 5.07826 46.5519 3.16121C46.276 3.01375 45.8622 2.71882 45.5864 2.71882L45.1726 2.57135L45.5864 1.53909L46.0002 1.68656C51.5174 3.16121 55.1036 8.02757 55.1036 14.3686C55.1036 17.7603 54.276 20.7096 52.6209 22.9216L52.345 23.2165L51.5174 22.6267Z" fill="black"/>
</svg>
